<svg width="20" height="20" viewBox="0 0 20 20" fill="none" xmlns="http://www.w3.org/2000/svg">
<path d="M9.89984 7.6165C10.9665 7.6665 11.2415 8.57484 11.2582 8.99984H12.7498C12.6832 7.34984 11.5082 6.3415 9.87484 6.3415C8.03317 6.3415 6.6665 7.49984 6.6665 10.1165C6.6665 11.7332 7.4415 13.6498 9.8665 13.6498C11.7165 13.6498 12.7082 12.2748 12.7332 11.1915H11.2415C11.2165 11.6832 10.8665 12.3415 9.88317 12.3915C8.7915 12.3582 8.33317 11.5082 8.33317 10.1165C8.33317 7.70817 9.39984 7.63317 9.89984 7.6165ZM9.99984 1.6665C5.39984 1.6665 1.6665 5.39984 1.6665 9.99984C1.6665 14.5998 5.39984 18.3332 9.99984 18.3332C14.5998 18.3332 18.3332 14.5998 18.3332 9.99984C18.3332 5.39984 14.5998 1.6665 9.99984 1.6665ZM9.99984 16.6665C6.32484 16.6665 3.33317 13.6748 3.33317 9.99984C3.33317 6.32484 6.32484 3.33317 9.99984 3.33317C13.6748 3.33317 16.6665 6.32484 16.6665 9.99984C16.6665 13.6748 13.6748 16.6665 9.99984 16.6665Z" fill="white" fill-opacity="0.7"/>
</svg>
