<svg width="40" height="40" viewBox="0 0 40 40" fill="none" xmlns="http://www.w3.org/2000/svg">
<path d="M30.0002 21.6634H21.6668V29.9967C21.6668 30.4388 21.4912 30.8627 21.1787 31.1753C20.8661 31.4878 20.4422 31.6634 20.0002 31.6634C19.5581 31.6634 19.1342 31.4878 18.8217 31.1753C18.5091 30.8627 18.3335 30.4388 18.3335 29.9967V21.6634H10.0002C9.55814 21.6634 9.13421 21.4878 8.82165 21.1753C8.50909 20.8627 8.3335 20.4388 8.3335 19.9967C8.3335 19.5547 8.50909 19.1308 8.82165 18.8182C9.13421 18.5057 9.55814 18.3301 10.0002 18.3301H18.3335V9.99674C18.3335 9.55472 18.5091 9.13079 18.8217 8.81823C19.1342 8.50567 19.5581 8.33008 20.0002 8.33008C20.4422 8.33008 20.8661 8.50567 21.1787 8.81823C21.4912 9.13079 21.6668 9.55472 21.6668 9.99674V18.3301H30.0002C30.4422 18.3301 30.8661 18.5057 31.1787 18.8182C31.4912 19.1308 31.6668 19.5547 31.6668 19.9967C31.6668 20.4388 31.4912 20.8627 31.1787 21.1753C30.8661 21.4878 30.4422 21.6634 30.0002 21.6634Z" fill="white" fill-opacity="0.9"/>
<rect x="0.5" y="0.5" width="39" height="39" stroke="black"/>
</svg>
