<svg width="25" height="25" viewBox="0 0 25 25" fill="none" xmlns="http://www.w3.org/2000/svg">
<path d="M5.51328 6.24999C3.99726 7.94317 3.14848 10.1297 3.12509 12.4023C3.06747 17.5952 7.30722 21.8652 12.5001 21.875C17.6856 21.8848 21.8751 17.6841 21.8751 12.5C21.8751 7.39549 17.7955 3.24169 12.7198 3.12499C12.6913 3.12407 12.6628 3.12891 12.6361 3.13923C12.6095 3.14955 12.5852 3.16513 12.5647 3.18504C12.5442 3.20496 12.5279 3.22879 12.5168 3.25514C12.5057 3.28148 12.5 3.30978 12.5001 3.33837V7.42186" stroke="white" stroke-opacity="0.9" stroke-width="2" stroke-linecap="round" stroke-linejoin="round"/>
<path d="M11.3957 13.605L7.53826 8.08746C7.4849 8.01101 7.46014 7.91822 7.46833 7.82535C7.47653 7.73248 7.51714 7.64545 7.58307 7.57953C7.64899 7.5136 7.73602 7.47299 7.82889 7.46479C7.92176 7.4566 8.01455 7.48136 8.091 7.53472L13.6086 11.3921C13.947 11.6359 14.1759 12.0031 14.2457 12.4143C14.3155 12.8254 14.2206 13.2476 13.9816 13.5894C13.7425 13.9311 13.3786 14.1651 12.9684 14.2405C12.5582 14.316 12.1348 14.227 11.7897 13.9927C11.6372 13.887 11.5039 13.7559 11.3957 13.605Z" fill="white" fill-opacity="0.9"/>
</svg>
