<svg width="35" height="35" viewBox="0 0 35 35" fill="none" xmlns="http://www.w3.org/2000/svg">
<path d="M32.7539 8.75016C31.631 9.26058 30.4206 9.596 29.1664 9.75641C30.4498 8.9835 31.4414 7.7585 31.9081 6.28558C30.6977 7.01475 29.356 7.52516 27.9414 7.81683C26.7894 6.56266 25.1706 5.8335 23.3331 5.8335C19.906 5.8335 17.106 8.6335 17.106 12.0897C17.106 12.5856 17.1644 13.0668 17.2664 13.5189C12.0748 13.2564 7.45186 10.7627 4.37477 6.98558C3.83519 7.90433 3.52894 8.9835 3.52894 10.121C3.52894 12.2939 4.62269 14.2189 6.31436 15.3127C5.27894 15.3127 4.31644 15.021 3.47061 14.5835V14.6272C3.47061 17.6606 5.62894 20.1981 8.48727 20.7668C7.56958 21.018 6.60616 21.0529 5.67269 20.8689C6.06878 22.1121 6.84451 23.1999 7.89084 23.9794C8.93716 24.7589 10.2015 25.191 11.506 25.2147C9.29465 26.9654 6.55352 27.9117 3.73311 27.8981C3.23727 27.8981 2.74144 27.8689 2.24561 27.8106C5.01644 29.5897 8.31227 30.6252 11.8414 30.6252C23.3331 30.6252 29.6477 21.0877 29.6477 12.8189C29.6477 12.5418 29.6477 12.2793 29.6331 12.0022C30.8581 11.1272 31.9081 10.0189 32.7539 8.75016Z" fill="white" fill-opacity="0.7"/>
</svg>
